<svg width="309" height="309" viewBox="0 0 309 309" fill="none" xmlns="http://www.w3.org/2000/svg">
<g clip-path="url(#clip0_293_2003)">
<rect width="309" height="309" fill="#D9D9D9"/>
<path d="M214.083 -77.4382C215.982 -80.1538 219.723 -80.8158 222.438 -78.9167C225.154 -77.0177 225.816 -73.2768 223.917 -70.5613L139.476 50.1887C139.505 50.2009 139.535 50.2126 139.564 50.2249C146.298 53.014 152.416 57.1025 157.569 62.2561C159.071 63.7582 160.483 65.3429 161.798 67.0002H262C278.569 67.0002 292 80.4317 292 97.0002V262C292 278.569 278.568 292 262 292H105.275L63.0352 323.974C59.3584 326.756 54.2545 326.665 50.6807 323.751C47.1069 320.837 45.9894 315.856 47.9746 311.695L57.3701 292H-26C-50.3004 292 -69.9998 272.301 -70 248V97.0002C-70 80.4317 -56.5685 67.0002 -40 67.0002H74.8525C76.1679 65.3429 77.579 63.7582 79.0811 62.2561C83.3748 57.9624 88.3378 54.4074 93.7686 51.7278L-24.7949 -69.8103C-27.1086 -72.1822 -27.0612 -75.9808 -24.6895 -78.2947C-22.3174 -80.6084 -18.519 -80.5611 -16.2051 -78.1892L106.243 47.3313C110.2 46.4487 114.252 46.0002 118.325 46.0002C121.323 46.0002 124.309 46.2428 127.255 46.7229L214.083 -77.4382ZM57 316L88.707 292H68.4492L57 316ZM-26 83.0002C-33.732 83.0002 -40 89.2683 -40 97.0002V248C-39.9998 255.732 -33.7319 262 -26 262H262C269.732 262 276 255.732 276 248V97.0002C276 89.2683 269.732 83.0002 262 83.0002H-26Z" fill="url(#paint0_linear_293_2003)"/>
<path d="M262 83C269.732 83 276 89.268 276 97V248C276 255.732 269.732 262 262 262H128.34L57 316L82.7617 262H-26C-33.732 262 -40 255.732 -40 248V97C-40 89.268 -33.732 83 -26 83H262Z" fill="white"/>
<path d="M150 148C151.437 148 152.764 148.771 153.476 150.02C154.187 151.268 154.174 152.803 153.441 154.039L121.441 208.039C120.721 209.255 119.413 210 118 210C116.587 210 115.279 209.255 114.559 208.039L82.5586 154.039C81.826 152.803 81.8129 151.268 82.5244 150.02C83.2359 148.771 84.5628 148 86 148H150ZM242 195C244.209 195 246 196.791 246 199C246 201.209 244.209 203 242 203H178.5C176.291 203 174.5 201.209 174.5 199C174.5 196.791 176.291 195 178.5 195H242ZM57.5 194.5C59.7091 194.5 61.5 196.291 61.5 198.5C61.5 200.709 59.7091 202.5 57.5 202.5H-6C-8.20914 202.5 -10 200.709 -10 198.5C-10 196.291 -8.20914 194.5 -6 194.5H57.5ZM118 198.153L142.979 156H93.0205L118 198.153ZM242 181C244.209 181 246 182.791 246 185C246 187.209 244.209 189 242 189H178.5C176.291 189 174.5 187.209 174.5 185C174.5 182.791 176.291 181 178.5 181H242ZM57.5 180.5C59.7091 180.5 61.5 182.291 61.5 184.5C61.5 186.709 59.7091 188.5 57.5 188.5H-6C-8.20914 188.5 -10 186.709 -10 184.5C-10 182.291 -8.20914 180.5 -6 180.5H57.5ZM240.498 123.793C242.546 122.963 244.877 123.951 245.707 125.998C246.537 128.046 245.549 130.377 243.502 131.207L194.65 151L243.502 170.793C245.549 171.623 246.537 173.954 245.707 176.002C244.877 178.049 242.546 179.037 240.498 178.207L182.498 154.707C180.988 154.095 180 152.629 180 151C180 149.371 180.988 147.905 182.498 147.293L240.498 123.793ZM-9.70703 125.498C-8.87746 123.451 -6.5455 122.463 -4.49805 123.293L53.502 146.793C55.0119 147.405 56 148.871 56 150.5C56 152.129 55.0119 153.595 53.502 154.207L-4.49805 177.707C-6.5455 178.537 -8.87746 177.549 -9.70703 175.502C-10.5366 173.454 -9.54941 171.123 -7.50195 170.293L41.3496 150.5L-7.50195 130.707C-9.54941 129.877 -10.5366 127.546 -9.70703 125.498Z" fill="url(#paint1_linear_293_2003)"/>
</g>
<defs>
<linearGradient id="paint0_linear_293_2003" x1="111" y1="86.4986" x2="111" y2="257.999" gradientUnits="userSpaceOnUse">
<stop stop-color="#FF3599"/>
<stop offset="1" stop-color="#FF77AB"/>
</linearGradient>
<linearGradient id="paint1_linear_293_2003" x1="118" y1="123.293" x2="118" y2="213.846" gradientUnits="userSpaceOnUse">
<stop stop-color="#FF3599"/>
<stop offset="1" stop-color="#FF77AB"/>
</linearGradient>
<clipPath id="clip0_293_2003">
<rect width="309" height="309" fill="white"/>
</clipPath>
</defs>
</svg>
