<svg fill="none" height="410" viewBox="0 0 362 410" width="362" xmlns="http://www.w3.org/2000/svg" xmlns:xlink="http://www.w3.org/1999/xlink"><linearGradient id="a"><stop offset="0" stop-color="#ff3599"/><stop offset="1" stop-color="#ff77ab"/></linearGradient><linearGradient id="b" gradientUnits="userSpaceOnUse" x1="181" x2="181" xlink:href="#a" y1="170.499" y2="341.999"/><linearGradient id="c" gradientUnits="userSpaceOnUse" x1="188" x2="188" xlink:href="#a" y1="207.293" y2="297.846"/><path d="m284.083 6.56177c1.899-2.71558 5.64-3.37753 8.355-1.47852 2.716 1.89905 3.378 5.63995 1.479 8.35545l-84.441 120.7503c.029.012.059.024.088.036 6.734 2.789 12.852 6.878 18.005 12.031 1.502 1.502 2.914 3.087 4.229 4.744h100.202c16.569 0 30 13.432 30 30v165c0 16.569-13.432 30-30 30h-156.725l-42.24 31.974c-3.677 2.782-8.78 2.691-12.354-.223s-4.692-7.895-2.706-12.056l9.395-19.695h-83.37c-24.3004 0-43.99981031-19.699-44-44v-151c0-16.568 13.4315-30 30-30h114.853c1.315-1.657 2.726-3.242 4.228-4.744 4.294-4.294 9.257-7.849 14.688-10.528l-118.5639-121.5383c-2.3137-2.3719-2.2663-6.17048.1054-8.48438 2.3721-2.31376 6.1705-2.26646 8.4844.10547l122.4481 125.52021c3.957-.882 8.009-1.331 12.082-1.331 2.998 0 5.984.243 8.93.723zm-157.083 393.43823 31.707-24h-20.258zm-83-233c-7.732 0-14 6.268-14 14v151c.0002 7.732 6.2681 14 14 14h288c7.732 0 14-6.268 14-14v-151c0-7.732-6.268-14-14-14z" fill="url(#b)"/><path d="m332 167c7.732 0 14 6.268 14 14v151c0 7.732-6.268 14-14 14h-133.66l-71.34 54 25.762-54h-108.762c-7.732 0-14-6.268-14-14v-151c0-7.732 6.268-14 14-14z" fill="#fff"/><path d="m220 232c1.437 0 2.764.771 3.476 2.02.711 1.248.698 2.783-.035 4.019l-32 54c-.72 1.216-2.028 1.961-3.441 1.961s-2.721-.745-3.441-1.961l-32-54c-.733-1.236-.746-2.771-.035-4.019.712-1.249 2.039-2.02 3.476-2.02zm92 47c2.209 0 4 1.791 4 4s-1.791 4-4 4h-63.5c-2.209 0-4-1.791-4-4s1.791-4 4-4zm-184.5-.5c2.209 0 4 1.791 4 4s-1.791 4-4 4h-63.5c-2.2091 0-4-1.791-4-4s1.7909-4 4-4zm60.5 3.653 24.979-42.153h-49.958zm124-17.153c2.209 0 4 1.791 4 4s-1.791 4-4 4h-63.5c-2.209 0-4-1.791-4-4s1.791-4 4-4zm-184.5-.5c2.209 0 4 1.791 4 4s-1.791 4-4 4h-63.5c-2.2091 0-4-1.791-4-4s1.7909-4 4-4zm182.998-56.707c2.048-.83 4.379.158 5.209 2.205.83 2.048-.158 4.379-2.205 5.209l-48.852 19.793 48.852 19.793c2.047.83 3.035 3.161 2.205 5.209-.83 2.047-3.161 3.035-5.209 2.205l-58-23.5c-1.51-.612-2.498-2.078-2.498-3.707s.988-3.095 2.498-3.707zm-250.205 1.705c.8295-2.047 3.1615-3.035 5.209-2.205l58 23.5c1.51.612 2.498 2.078 2.498 3.707s-.988 3.095-2.498 3.707l-58 23.5c-2.0475.83-4.3795-.158-5.209-2.205-.8296-2.048.1576-4.379 2.205-5.209l48.852-19.793-48.852-19.793c-2.0474-.83-3.0346-3.161-2.205-5.209z" fill="url(#c)"/></svg>